<?xml version="1.0" encoding="iso-8859-1"?>
<!-- Generator: Adobe Illustrator 19.0.0, SVG Export Plug-In . SVG Version: 6.00 Build 0)  -->
<svg version="1.1" id="Layer_1" xmlns="http://www.w3.org/2000/svg" xmlns:xlink="http://www.w3.org/1999/xlink" x="0px" y="0px"
	 viewBox="0 0 512.001 512.001" style="enable-background:new 0 0 512.001 512.001;" xml:space="preserve">
<path style="fill:#CFD8DC;" d="M502.856,188.035c-11.36-41.407-33.296-80.519-65.829-113.052
	c-99.975-99.976-262.07-99.976-362.045,0s-99.976,262.07,0,362.045c32.533,32.533,71.645,54.469,113.052,65.829L502.856,188.035z"/>
<path style="fill:#B0BEC5;" d="M413.415,114.336l-15.741-15.741c-21.699-21.699-57.007-21.699-78.706,0l-55.093,55.093
	c-21.699,21.699-21.699,57.007,0,78.706l15.741,15.741l-31.482,31.482l-15.741-15.741c-21.699-21.699-57.007-21.699-78.706,0
	l-55.093,55.093c-21.699,21.699-21.699,57.007,0,78.706l15.741,15.741l-7.87,7.87l81.57,81.57
	c85.841,23.55,181.549,1.615,248.993-65.829s89.379-163.153,65.829-248.993l-81.571-81.569L413.415,114.336z"/>
<path style="fill:#37474F;" d="M145.817,256.005l-55.093,55.093c-26.08,26.08-26.081,68.365,0,94.447l15.741,15.741
	c26.081,26.081,68.365,26.08,94.447,0l55.093-55.093c26.081-26.081,26.081-68.365,0-94.447l-15.741-15.741
	C214.183,229.924,171.899,229.924,145.817,256.005z M224.523,303.228c8.68,8.68,8.68,22.802,0,31.482l-55.093,55.093
	c-8.68,8.68-22.802,8.68-31.482,0l-15.741-15.741c-8.68-8.68-8.68-22.802,0-31.482l55.093-55.093c8.68-8.68,22.802-8.68,31.482,0
	L224.523,303.228z"/>
<path style="fill:#263238;" d="M311.098,90.724l-55.093,55.093c-26.08,26.08-26.081,68.365,0,94.447l15.741,15.741
	c26.081,26.081,68.365,26.08,94.447,0l55.093-55.093c26.081-26.081,26.081-68.365,0-94.447l-15.741-15.741
	C379.465,64.643,337.179,64.643,311.098,90.724z M389.804,137.947c8.68,8.68,8.68,22.802,0,31.482l-55.093,55.093
	c-8.68,8.68-22.802,8.68-31.482,0l-15.741-15.741c-8.68-8.68-8.68-22.802,0-31.482l55.093-55.093c8.68-8.68,22.802-8.68,31.482,0
	L389.804,137.947z"/>
<path style="fill:#455A64;" d="M299.293,181.235l-59.029,59.029l-5.622,37.104l37.104-5.622l59.029-59.029
	c8.693-8.693,8.694-22.789,0-31.482C322.081,172.541,307.986,172.541,299.293,181.235z"/>
<path style="fill:#607D8B;" d="M181.235,299.293c-8.693,8.693-8.694,22.789,0,31.482c8.694,8.694,22.789,8.693,31.482,0
	l59.029-59.029l-31.482-31.482L181.235,299.293z"/>
<g>
</g>
<g>
</g>
<g>
</g>
<g>
</g>
<g>
</g>
<g>
</g>
<g>
</g>
<g>
</g>
<g>
</g>
<g>
</g>
<g>
</g>
<g>
</g>
<g>
</g>
<g>
</g>
<g>
</g>
</svg>
