<?xml version="1.0" standalone="no"?>
<!DOCTYPE svg PUBLIC "-//W3C//DTD SVG 20010904//EN"
 "http://www.w3.org/TR/2001/REC-SVG-20010904/DTD/svg10.dtd">
<svg version="1.0" xmlns="http://www.w3.org/2000/svg"
 width="1080.000000pt" height="1080.000000pt" viewBox="0 0 1080.000000 1080.000000"
 preserveAspectRatio="xMidYMid meet">
<metadata>
Created by potrace 1.15, written by Peter Selinger 2001-2017
</metadata>
<g transform="translate(0.000000,1080.000000) scale(0.100000,-0.100000)"
fill="#000000" stroke="none">
<path d="M3323 10310 c-39 -23 -47 -38 -88 -159 l-32 -96 -109 -16 c-60 -9
-136 -24 -168 -33 l-60 -18 -35 44 c-82 100 -126 139 -166 148 -22 5 -49 7
-60 4 -11 -4 -93 -54 -183 -112 -132 -85 -167 -112 -183 -143 -10 -21 -19 -49
-19 -62 0 -14 23 -72 51 -130 l50 -106 -49 -63 c-27 -35 -69 -96 -93 -137
l-43 -73 -111 7 c-125 8 -170 -3 -200 -48 -23 -35 -97 -395 -89 -432 15 -68
47 -92 191 -139 90 -30 84 -23 98 -131 3 -27 15 -85 27 -128 11 -43 19 -79 17
-81 -2 -2 -42 -36 -88 -76 -90 -79 -116 -122 -106 -174 4 -17 55 -105 113
-195 92 -142 111 -166 146 -182 23 -10 51 -19 64 -19 12 0 67 23 122 50 55 28
104 50 109 50 5 0 42 -25 82 -55 40 -30 100 -69 132 -86 l59 -31 -6 -42 c-25
-185 -19 -232 37 -284 36 -34 395 -108 448 -93 61 18 86 53 124 176 l35 113
68 7 c56 6 170 31 233 50 11 4 40 -23 93 -85 137 -160 154 -160 380 -10 235
156 240 166 151 350 -56 115 -58 120 -41 142 21 28 127 189 141 212 9 16 21
16 126 7 130 -11 150 -8 196 25 39 29 44 45 87 261 51 249 44 263 -144 328
l-124 42 -16 99 c-10 54 -23 119 -29 143 -14 50 -27 33 104 141 77 63 95 92
95 152 0 38 -13 63 -105 203 -58 88 -119 170 -137 183 -53 38 -104 31 -218
-30 l-98 -53 -39 32 c-21 18 -71 54 -111 80 -127 82 -116 63 -104 186 11 118
6 156 -30 195 -31 33 -45 37 -237 77 -191 40 -215 42 -258 15z m66 -975 c179
-43 335 -191 391 -374 25 -78 26 -212 5 -296 -49 -185 -206 -342 -392 -390
-74 -19 -203 -19 -278 0 -183 48 -342 208 -389 391 -55 212 32 453 208 578 35
25 80 53 100 61 109 46 240 57 355 30z"/>
<path d="M7360 8510 c-156 -22 -355 -99 -492 -191 -80 -53 -1107 -1074 -1186
-1179 -169 -223 -251 -511 -222 -780 20 -186 70 -339 159 -484 l42 -70 -143
-143 -143 -143 -55 37 c-66 45 -200 103 -292 128 l-67 18 -35 74 -35 74 35 46
c19 25 44 64 55 85 l20 40 69 -7 c125 -13 165 26 195 183 28 148 2 197 -125
235 l-55 17 -19 96 -18 97 50 46 c60 55 72 76 72 130 0 32 -11 56 -56 123 -66
97 -86 115 -136 123 -30 5 -52 0 -108 -26 l-71 -32 -27 25 c-15 14 -53 42 -85
63 l-58 36 7 59 c8 74 -19 140 -69 163 -49 23 -195 50 -232 43 -48 -9 -89 -53
-110 -116 -10 -30 -22 -58 -28 -61 -5 -4 -36 -10 -68 -13 -33 -4 -79 -13 -104
-20 l-44 -14 -36 43 c-40 50 -108 81 -152 71 -42 -11 -193 -117 -209 -148 -21
-41 -17 -103 11 -159 l26 -50 -32 -40 c-17 -21 -44 -62 -59 -91 l-28 -51 -66
2 c-53 2 -73 -2 -101 -19 -46 -29 -59 -55 -80 -172 -18 -94 -18 -98 0 -138 20
-44 56 -71 122 -90 35 -11 43 -18 48 -44 3 -17 13 -64 22 -103 l16 -73 -45
-40 c-86 -76 -89 -135 -10 -253 88 -130 132 -148 239 -97 l66 30 43 -33 c24
-19 64 -45 89 -58 l46 -24 -6 -61 c-7 -66 7 -117 39 -143 15 -13 -32 -64 -506
-540 -461 -463 -529 -536 -577 -614 -72 -117 -125 -250 -151 -377 -31 -148
-24 -380 14 -519 31 -112 85 -229 151 -331 56 -86 431 -472 535 -551 256 -194
617 -264 940 -184 141 35 319 123 425 208 44 36 312 298 596 584 405 407 527
535 568 598 132 202 191 397 191 631 0 230 -47 390 -186 632 l-19 33 145 138
144 138 43 -29 c76 -51 226 -116 333 -143 330 -83 687 -9 960 199 128 97 1113
1091 1175 1185 133 203 195 403 195 632 0 232 -59 432 -186 627 -68 105 -404
450 -532 546 -129 98 -279 165 -447 202 -85 19 -286 26 -375 14z m270 -762
c19 -6 58 -25 85 -43 58 -38 352 -333 382 -385 62 -104 68 -241 15 -354 -29
-61 -73 -108 -534 -570 -537 -538 -546 -545 -666 -567 -31 -6 -81 -8 -110 -4
l-55 7 171 171 c213 215 227 239 227 397 0 90 -4 112 -24 153 -37 75 -104 142
-179 179 -61 30 -74 33 -162 33 -147 0 -175 -17 -387 -227 -136 -136 -174
-168 -179 -154 -3 9 -4 54 -2 100 8 152 -6 134 567 707 539 540 550 549 663
568 58 10 134 5 188 -11z m-3217 -1036 c151 -75 234 -251 193 -412 -41 -158
-164 -263 -324 -277 -171 -14 -323 88 -377 255 -23 69 -17 188 13 255 40 91
150 183 246 208 17 5 66 7 108 5 62 -2 89 -9 141 -34z m361 -1738 l47 -7 -170
-172 c-212 -214 -226 -238 -226 -395 0 -95 3 -110 28 -157 98 -188 309 -261
495 -173 48 23 91 60 226 196 189 193 189 193 183 54 -7 -156 9 -136 -566
-711 -546 -547 -545 -546 -675 -570 -71 -13 -155 -1 -225 32 -31 15 -106 82
-227 201 -227 224 -239 245 -239 398 0 177 -26 143 563 731 348 348 521 514
552 530 41 21 131 46 171 48 9 1 37 -2 63 -5z"/>
<path d="M2134 7621 c-29 -18 -53 -57 -90 -151 l-16 -40 -77 0 c-42 0 -104 -6
-138 -13 l-63 -14 -39 56 c-59 84 -83 103 -139 109 -45 4 -58 -1 -176 -64
-183 -98 -201 -131 -146 -272 l32 -83 -54 -58 c-30 -32 -68 -79 -84 -105 -32
-51 -31 -51 -121 -35 -138 24 -172 -5 -226 -187 -21 -71 -37 -145 -37 -164 0
-62 31 -97 124 -139 l83 -39 6 -93 c4 -52 11 -109 16 -127 9 -31 8 -33 -48
-72 -96 -65 -119 -101 -112 -179 4 -38 118 -243 156 -278 46 -43 96 -44 195
-3 l72 30 61 -56 c34 -30 81 -67 104 -82 27 -17 41 -33 39 -42 -3 -8 -10 -50
-17 -92 -21 -138 7 -169 206 -227 119 -35 145 -39 176 -31 49 14 82 53 119
143 l33 77 56 0 c31 1 90 7 131 14 85 15 68 24 140 -78 42 -60 88 -89 140 -89
53 0 287 128 313 171 25 44 21 100 -14 190 l-31 80 54 64 c30 36 63 79 74 97
18 31 22 32 59 27 158 -24 203 -18 248 32 21 23 97 269 97 312 0 52 -39 92
-136 139 l-91 44 -6 86 c-4 47 -9 102 -12 121 -5 34 -4 36 62 80 138 92 144
138 44 320 -99 182 -131 197 -282 139 l-80 -31 -52 49 c-29 27 -73 64 -99 81
-27 18 -48 36 -48 40 0 4 7 41 15 83 28 148 -2 186 -187 242 -141 42 -189 45
-234 18z m-69 -771 c181 -30 336 -188 365 -372 41 -265 -173 -517 -439 -518
-246 0 -451 204 -451 450 0 205 137 379 343 435 63 17 103 18 182 5z"/>
</g>
</svg>
